<?xml version="1.0" encoding="UTF-8"?>
<svg id="Layer_2" data-name="Layer 2" xmlns="http://www.w3.org/2000/svg" viewBox="0 0 110 110">
  <g id="Layer_1-2" data-name="Layer 1">
    <g>
      <path id="star" d="m31.03,54.9c11.41,0,23.7-14.48,23.7-28.75,0,14.27,12.29,28.75,23.7,28.75-11.41,0-23.7,14.48-23.7,28.75,0-14.27-12.29-28.75-23.7-28.75Z"/>
      <path d="m55,1.15c29.7,0,53.85,24.16,53.85,53.85s-24.16,53.85-53.85,53.85S1.15,84.7,1.15,55,25.3,1.15,55,1.15m0-1.15C24.62,0,0,24.62,0,55s24.62,55,55,55,55-24.62,55-55S85.38,0,55,0h0Z"/>
    </g>
  </g>
</svg>